<?xml version="1.0" encoding="utf-8"?>
<!-- Generator: Adobe Illustrator 26.0.1, SVG Export Plug-In . SVG Version: 6.00 Build 0)  -->
<svg version="1.1" id="Layer_1" xmlns="http://www.w3.org/2000/svg" xmlns:xlink="http://www.w3.org/1999/xlink" x="0px" y="0px"
	 viewBox="0 0 412.3 1150.1" style="enable-background:new 0 0 412.3 1150.1;" xml:space="preserve">
<style type="text/css">
	.st0{fill:#BB0E00;}
</style>
<g>
	<path class="st0" d="M391.7,999.7c-10.4,3.5-7.6,3.8-12.8-0.4c-0.7,0.6-1.7,1.1-2.2,2c-6.7,13.1-2.9,11.4-4.5,14.4
		c-3.5,6.5-3.7,13.6-4,20.7c-0.2,3.9-2.4,8-1.5,11.4c2,8.1-0.5,15.5-1.1,23.2c-0.8,10.8,2.4,24.5-3.8,40.4c-1.7,4.2-2.3,8.8-4.1,13
		c-2.6,6.4-2.8,12.5-0.4,18.9c1.3,3.3-0.5,8.4-3.3,18.4c-6.3,3.1-4.1-2.9-8.8,10.8c-7.7-10.5-1.1-4-7.8-18.4
		c-1.1,9.5-0.5,17.2-1.1,24.2c1.4,1,1.8,1.6,2.2,1.6c3-0.3,6.2-1,7.9,2.7c2.1,4.5-0.5,7.4-6.5,18.9c-12.5,0.1-8.2-0.2-16.6,1.6
		c-2.4-2.3-4.6-4.5-6.9-6.7c-1.9-7.2-0.5-14.2-1-21.1c3.4,0.1,2.2,4.7,4.4,4.6c2.7-2.4,5.1-4.3,7.9-6.8c1.5-3.5,3.3-10.6,2.8-14.3
		c-1.2-9.1,2.7-18,0.8-27.1c-0.5-2.6,0.4-4.4,4.3-15.1c-4.6-15.1-3.1-5.7-2.1-55.4c0.1-3.2-0.2-6.5-2.3-9.1
		c-10.2-12.1-1.1,82.2-6.5,115.2c-11.3-1.6-7.8-2.4-16.3,4.3c-2.1,9-1.4,18.6-6.1,26.3c-6.5,4.6-1.6-27.4-10.8-32.4
		c-8.9,9.4-7.4,16.1-6.9-97.3c0-5.2,0.2-10.5-2.9-15.7c-10.4,1.1-8.7,3.1-13.2-6.5c-0.8,8.2-0.8,8.2,4.3,15.9
		c-4.5,9.9-4.4,6.9-1.4,13.7c-9.9,16.8,1.7,34.3-7.3,51.1c1.7,6.8,4.3,13.5,3.5,20.8c-1.6,13.8,0.4,13.6-5.7,24
		c-2.5-1.8-2-3-4.3-12.3c-9,4.1,1.4,16.8-3.4,23.8c-11.3-19-9.3-19.8-10.2-34.2c-2.8,11.1-0.7,19.2-0.4,26.6
		c-10.3,43.5-1.6,10.6-7.6-3c-0.6-1.4-2.6-2.2-4.3-3.5c-3.1,13.3-0.8,26.5-2.6,39.3c-1.6-0.1-2.7-0.2-3.8-0.3
		c-3.2-6.1-0.6-12.8-1.6-19.2c-3.5-23.2,0.9-15.6-5.4-23.8c-3.1,1.3-0.8,26.2-0.9,39.3c-0.1,12.4-1.9,24.5-2.7,37.1
		c-5.5-3.5-4.5-0.4-6.9-40.6c-7.5-5.3-6.6-18.9-11.3-15.1c-1.6,8.3,0.3,16.7,0.3,25c-0.1,11.1-6.7,11.8-7.4,5.2
		c-5.4-51.9-0.9-46.3-8.5-43.8c0,44.9,5.2,45.3-6.2,71c-3.7-4.4-3.7-4.4-2.4-17.5l-0.4,0.3c2.9-2.3,2.9-2.3,0-4.5
		c2.1,1.4-3.8-5.7-3.1-18.6c1-18.5-1.2-77-3.8-95.3c-1.5-10.6-11.7-15.9-12.8-11.8c-1.6,6.4,11.5,6.7,7.8,17.4
		c-1.6,1.9-3,0.7-4.5-0.1c-4.7-2.7-3.5-7.5-0.6,76.3c1.5,2.5,3.5-0.1,5,1.3c0.5,3.8,1.4,7.9-1.7,10.9c-5.5,5.4-4.3,20.6-0.3,27.5
		c2.8,4.9,1.1,7.8-2.9,21.2c-6.7-35.2-2.3-20-9.8-86.3c-1.1-9.5,1-13.4-4.7-20.5c-0.7,6.8-1.3,13.2-2.1,20.3c-3.4-2.1-6.2-3.9-9-5.6
		c-3.1-11.1-2.4-13.5-10.2-12.7c-5.3-6.8-5.1-15.5-6.3-23c-2-3.6-5-4.7-7.4-6.5c-2.3-1.8-3.7-5-5.7-7.3c-0.5-0.5-1.9-0.1-3.4-0.1
		c-0.7,11.2-0.6,16.5-3,27c-0.2,1-1.5,1.7-2.4,2.4c-9.8,7.4-2.5-138-7.6-168.8c-0.1-0.9-1.8-1.5-2.8-2.1c-0.3-0.2-0.9,0.2-1.8,0.5
		c-4.6,153.9,2.4,162.8-9.9,162.9c-1.3,3.5-2.5,7-3.8,10.4c-3.3-1-4.6-3.3-4.8-5.8c-3.6-39.8-1.4-68.8-5.5-71.5
		c-4-2.6-8-5.1-12.7-8.1c-2.4,17-2.2,20.1-5.4,20.6c-3.3,0.4-3.6-2.4-4.4-4.8c-0.2-0.5-0.9-0.8-1.3-1.2c-3.8,15.3,2.6,31.7-4.2,58.9
		c-3.2,2.6-6.1,2.4-9.1,1.2c-4.1-3.4-4.3-9.2-7.9-13.6c-2.1-0.5-1.6,4.5-4.6,3.7c-3.1-5.7-4.5-11.9-4.5-18.6
		c0-11.1-0.8-22.1,0.6-33.1c0.3-2.6-0.2-5.1-1.9-7.2c-6.3,0.3-3.8,7.9-3.5,22.7c0,0.9-2.3,3.7-3.5,1.8c-17-26.7,0.5-45.7,3.2-58.5
		c2-10.1-1.3-13.1,0.3-24.9c0.6-4.3,0.3-15.8-1.2-19.9c-5.1-3.4-8.4-5-8.8-8.1c-0.8-5.7-2.4-11.2-1.5-17.3c1.2-8.1-2.1-25.4-0.7-33
		c1.8-10.4-2.4-20.7,0.3-31c-3.1-12.4,0.5-23.6-3-34.8c-6.8-3.3-6.3-1.2-5.9-20.1c2.5-0.1,4.5-0.3,6.9-0.4
		c0.9-6.4,1.2-12.8,1.1-19.3c0-1.2-0.6-2.5-1.1-4.1c-1.8-0.9-3.9-1.9-6.6-3.2c-1.2-6.7-1.1-13.7,0.1-20.6c4.7-2.3,7.8-2.2,7.4-11.8
		c-0.7-14.2,1.7-28.5-0.7-42.2c-6.9-4.8-6.8-1.5-5.9-25.3c9-10.9,7.4-16.4,6.8-50.1c-0.7-35.8,7.6-15.6-1.1-67.2
		c1.8-2.2,4.1-3.9,3.2-6.8c-2.3-7-0.8-14-0.6-21.1c1.5-42.3,21.1-59.2,8.9-81.4c-9.5-17.1-2.2-14-5.3-23.8
		c-4.8-15.2,0.9-19.6-3.9-46.8c-1.6-1.2-6.6-3.2-4.3-8.8c6.1-14.8,2,15.1,9.8-50c3.4-11.4,8.1-9.3,9.5-43.3
		c0.1-3.1-1.4-21.4,0.3-34.8c0.5-4.1,1.4-21-2-24.8c-13.7-15.9-6.1-34.1-7.1-50.3c-1.1-17.5,2.8-6.9,2.2-48.6
		c-0.2-14-4.7-19.5-1.6-44.6c0.3-2.4,1.8-4.6,3.1-7.6c-0.4-2.8-4.2-5.7-2.5-9.9c1.2-3,2.7-5.8,4.3-9.3c0.5-6.2-1-35.3,7-38.6
		c0.4,1.8,1.1,3.5,1,5.1C3.3,64.3,4.8,80,2.5,95.5c1,22.1-2.3,44.1-1.6,66.2c1.7,49.1-4.7,48.8,3.7,58.7c-0.2,6.8-0.4,4.9,0.8,6.6
		c0.6-0.9,1.6-1.7,1.6-2.6c0.1-1.9-0.9-3.3-2.8-3.6c4.5-13.1,4.4-26.8,4.2-39.4c3.1-10.9,5.8-20.9,8.8-30.8c1.1-3.5-1.6-6.3-0.8-9.5
		c0.7-2.6,5.2-72.8,5.6-77.8c0.9-12.8,6.7-7.4,10.5-9.5c5.4-4.9,3.7-6.6,9.8-72.1c0.1-0.6,1.7-1.2,2.6-1.5c0.3-0.1,1.2,0.8,1.2,1.2
		c-0.4,11.7-1.9,2.4,2.3,25.3c2.1-0.9,3.6-1.6,5.7-2.4c6.2,12.5,6.1,10,0.3,22.1c0.6,4.9,1.7,9.3,1.7,13.8c0,4.5-0.8,9.1,1,13.4
		c7.7,4,1.2-11.8,2.1-15.2c3.7-14.5,1.1-29.8,5.2-44.2C74,0.5,65.4-1.1,66.9,62c0,1.1,1.1,2.1,1.9,3.7c4-3.9,4.2,5.6,5.6-56.3
		c0.1-5.7,1.9-24.8,5.5-28c1.6,3.6,2.4,34.1,0,50.4c-1.7,11.7,2.5,18.4,0.1,40.8c-0.8,7.6-2.4,34.7-1.5,41
		c3.2,22.9,0.4,24.1,4.2,34.7c2.7-4.9,2.6-4.9,2.2-30.1c-0.2-9.7,1.1-19.6-2.5-28.8c8.2-18.5,3.7-33.6,5.1-89.5
		c1.9-71.6-1.1-83.9,2.3-103c1.6-8.8,0.6-18.1,1.6-27.2c0.2-1.8,1.3-3.4,2.1-5.3c9.1,10.8,2,115.4,6.9,135.8
		c2.8-2.6,1.8-6.3,2.7-9.3c3.9-14,2.1-26.5,2.1-26.9c2-37.1,1.5-30.8,3.5-33.8c4.4,4.8,1.5,11.4,3.8,16.7c0.2,0.6,1.9,0.4,2.9,0.6
		c3.5-51.9,0.2-47.2,11.3-37.4c1-2.8,2.9-5.3,2.6-7.5c-1.6-11.8-0.2-23.4,1.5-34.9c-1.7-8.7,1.5-16.6,3.2-24.8
		c0.3-1.3,2.1-2.3,3.4-3.8c7.7,15.9,5.9,14.4,15.7,17.3c8.3,11.2-0.3,59.6,6.1,87.6c3.8-9.8,0.8-19.2,3.6-27.6
		c3.8,0.9,2.5,8.1,8.2,6.5c0-0.7,2.6-56.1-1.7-67.9c0.6-4.5,1.5-8.9,5-12c4.2,3.2,4.2,7.9,4.4,30c1,114.6,0.1,109.1,3,115
		c0.7,1.5,0.3,3.9-0.2,5.6c-1.6,5.8-1,11.6-1.2,16.4c2,5.4,4.4,9,9.1,10.9c0.5-3.2-0.1-67.1,1-73.5c3.4-2.6,4.4,1.2,6.5,1.6
		c0.9,0.2,2-0.6,3.4-1.1c-0.7-20,0.6-40.1-0.5-60.4c-0.9-16.8,1-33.7,1.7-51.1c9.6,0,6.7,1.4,12.6-7.1c13.7,5.7,0,129.6,10.1,157.1
		c3.3,0.2,1.8-5.2,5.2-4.4c6.8,73.3-1,64.1,5,94.7c8.3-3,5.6-3,10,2.2c2.1-2.4,4.1-4.7,6-6.9c3.9,2.9,2.7,8.2,5.4,11.5
		c-5.2,27.2-3.2,19.4-8.3,21.6c-3.5,1.5-4.5,4.9-2.4,7.6c0.9,1.1,3.9,3.6,5.6,5c2.7,6.7,1.5,14,2.8,21c0.3,1.7,1.7,3.3,2.6,4.8
		c2.8-0.9,2-2.8,1.8-4.6c-0.6-6.5,3.2-12.3,2.2-19.1c-1.8-12.3,0.3-74-1.1-93.7c-0.3-4.1-0.2-10.8,1.5-20.3c4.4-7.7,7.6,0,14.3-8.9
		c13.6-18.2,8.1,3.3,10.7-28.4c0.6-6.7,5.6-28.4-3.1-43.8c-0.9-1.5-0.6-3.7-0.9-5.6c0,0-0.2,0.5-0.2,0.5c6.7-7.2,3.1-3.3,3.7-4
		c10.6,5.8,2.1,9.1,16.3,49.9c6.4,18.5-3.1,79.6,6,114.1c-1.9,32.3-2.9,29.5,4.9,40.6c3.7-8.4,2.8-9,8-9.4c6.4,5.3,5,12.3,3.4,19.8
		c-6.9,5-5.6,4.6-6.3,2.8l0.9,1c-0.1,4.5,0.3,9.1-2.3,13.1c-1.9,2.9-2.1,6-1.1,9.3c1,3.2,0.2,3.6-6,20c-1,5,3,9.5,1.9,14.9
		c-0.9,4.4-0.8,9,1.2,13.3c4-0.3,3.8-6.5,9.2-6.6c2.6,1.4,6.2,3.4,10.3,5.6c0,3.6,0,7.5,0,11.3c-2.8,2-2.6-3.8-5.5-2
		c0,14.3-0.8,8.5,3,22.5c-2.5,11.1-5.8,19,0.3,27.8c-1,1.2-0.9,1.3-0.3-0.4c1.8,0.2,3.6,0.5,5.4,0.7c2.2,2.9,1.7,6.4,0.5,9.1
		c-4.8,10.5,0.9,20.9-1.9,32.5c-1.5,6.3,2.6,10.8,7.5,14c0.4,0.3,1.1,0,1.7-0.1c4.7-9.1-3.6-17.6-0.5-27.8c1.7-1.8,4.1-4.4,6.8-7.3
		c-11-12.5-6.7-4.9-5.1-19.9c0.7-6.8,0.3-20.3,1.7-27.1c1.1-5.3,0-10.3,0-15.5c-0.1-5.8-5.5-10.7-2.9-16.8
		c1.5-3.6,0.4-44.9,0.8-66.1c0.6-30-2.2-59.8-3.4-89.7c-0.3-9-2.5-17.8-3.8-26.8c2.4-7.3,5.9-14.6,2.3-21.7
		c4.2-24.9,3.1-14.9,4.1-38.7c7.2-7.4,1.5,17.4,8.9,36.1c2.4,6,3.9,12.3,5.7,18.3C355.8,34,355,50.8,354,67.7
		c-0.5,9.7-5.9,5.8-5.8,44.1c0,4.2,2.1,7.3,6.3,8.3c1.1,0.2,2,1.3,3,2c5.9,11.7-2.3,10.9-2.5,45.9c-0.1,14.3-1.5,28.5,0.4,42.8
		c1,7-2.2,11.9-0.3,35.2c5.3,7.7,14.5,7.5,14.6,24.6c0.3,42.1,1.2,16.5,4.6,68.1c7.1-51.5,8.8-178.7-3.6-229.4
		c-1.1,8.3-1.9,14.7-2.8,21.2c-3.2-3-1.8,2.2-6-23.5c-1.6,1.6,1.8-0.8,2.1-6.7c1.3-26.2,0.1-30.3,6.4-29.9
		c7.1,24.6,5.4,16.6,4.1,28.6c4.3,10,5.7,3.4,7.6,40c1.7,32.4,4.9,45.4,6.5,54.1c0.4,2.3,2.3,4.3,3.4,6.1c7.4-1.2,8-8,10.9-12.7
		c3.7,7.7,3,8.6,3.2,45c6.4,6.9,3.9,3.9,9.7,11.5c1.7,10.5,0.7,30.5-0.1,41.1c-0.8,11.3-0.8,11.3,3.9,23c-0.9,9.8-3.3,56.7-6.2,67.3
		c-4.1,14.6-4.2,1.7-4.2,31.3c9.1,25.7,7,11.1,7.3,64c0,1.8,0.7,3.5,1.3,6.2c1.7-1.9,2.8-3.1,4.1-4.6c2.7,0.8,1.3,3.9,2.1,5.7
		c5.2,12.1,13.9-10.1,20.6-7.8c8.3,2.8,8.4-2.7,8.4-11.4c0.2-32.2,0-34.8,0.9-39c5.5-26.4-0.9-25.3,4.5-38.3
		c0.8,0.6,2.1,1.1,2.2,1.8c1.3,13.5-1,42.5-1.1,42.8c-4.4,9.5-3.4,16.9-1.9,75.6c3.3-0.8,1.7-6.3,6.2-6.3c3,24.7-4.5,32.1-3.3,44.3
		c0.7,7.2-0.2,14.2-0.8,21.2c-3,0.8-2.8-1.4-3.1-2.8c-2.6-12.8-0.6-8.7-5.9-12.9c-1.7,16.3,0.4,32.9-2.7,53.4
		c-0.5,3.6,0.6,6.3,2.5,9c0.2,0.3,1,0,1.8,0c2.1-29.1,1.4-24.7,3-26.4c3.6,4.5,1.2,21.8,1,28.7c-0.5,15.1,1.5,15.2-3,28.8
		c-1.3,3.8-1.4,8.1-2.1,13c-2.5-5.4,0.3-11.4-4.4-15.1c-2.8,5.7-0.7,5-0.7,34.8c-12.6,27.7-5.2,40.7-9.9,40.5
		c-4.2-0.2-6.9,2-8.1,6.1c-9.9,31.9,2.3,47.6-2.1,69.4c0,0.1-8.5,62.5-6,79.4c1.7-1.1-1.6,1.1-1.7,2.3c-0.8,6.1-1.8,12.2,2.1,17.6
		c-0.8-0.7-5.3,12.5-3.2,26.4c1.1,7-0.2,14.2,2.5,21c0.7,1.7,0.5,3.8,0.4,5.8c-0.2,66.4,0,63.4-2.2,68.5c-2.7-11.4-0.8-8.7-5.6-64
		c-3.7-1.4-4.2-1.4-4.1,0.6c1.1,14.2-1.9,28.4-0.1,42.6c0.6,4.5-2.7,4-2.4,40.6c0.1,14.5-2,13.7-7.9,16.8c-5-0.9-6.8-9.2-12.4-4.5
		c-3.8-5.4,0.7-7.8,1.9-11.4c3-1,6.2-2.2,9.7-3.4c-5.2-8.1-9.1-10.8-5.9-25.6c3.4-3.4,5-14.4,3.4-22c-0.2-0.8-1.4-1.4-2.3-1.9
		C390.7,974.3,391.2,980.7,391.7,999.7z M413,756.7c0.7-1.3,2.5-2.2,1.2-4.1c-0.3,1.5-0.5,3-0.8,4.5c-3.4,2-2.8,1-1.7,4.4
		C412.6,759.8,412.3,761.2,413,756.7z M69.9,150.2c1.1-1.5,0.9-1.6,0.4,0.4c-2.7,4-2.7,4-0.4,7.7C69.9,155,69.9,152.6,69.9,150.2z
		 M395,568.8c-1.6,7.6-1.4,15.3,0.2,22.9c0.1,0.6,1.5,0.9,2.6,1.5c0.4-3.4,1.4-3.9-0.9-21.2c-0.1-1-1.5-1.8-2.3-2.7
		C394.6,568.9,393.7,567.6,395,568.8z M384.1,944c-2.5,5.7-5.6,10.3-0.3,12.1l-0.4-0.4c1.4,3.3,1.3,6.1,6.8,8c1.2,0.4,3.5-2,3.7-3.6
		c2.2-16.2,2.5-13.6,1.1-28.9c-0.1-0.8-0.9-1.6-1.5-2.4c-8.7,17.3-6.2,13.1-9.8,15.7c-0.4-1.7-0.5-6.3-3.9-4.6
		c-4.1,2.1-6.2-2.3-9.6-3.5c-2.6,7.2-3.9,5.3-3.7,24.4c0,1.8,1,3.6,1.4,5.2c6.9,1.2,3.2-3.5,6.7-21.1
		C378.1,944.6,381.1,944.3,384.1,944z M-2.4,884.5c-3.5,7.4-3,11.1-3.3,67.9c-0.1,11.1,2.6,11.5,4.8,14.2c0.8-1.1,6.9-6.1,4.1-22.2
		c-1.4-7.9,0.2-13.5-0.4-52.5C2.7,888.8,1.3,885.7-2.4,884.5z M-1.8,378.2c-0.5,6.8-2.7,56.6,1,63.6c0.5,0.9,1.9,1.2,2.9,1.8
		c4.2-12.7,1.3-31.9,2.2-36.1c1.6-7.2,0-14.1-0.8-21.1C3.1,383.2,1.1,380.6-1.8,378.2z M407.8,854.5c-4.9,13.2-2.6,22.5,0.5,30.6
		c-1.2,5.2-3.1,9.6-2.9,13.9c0.4,10.8-0.2,21.9,4,32.2c1.1-0.4,2.8-0.7,2.9-1.3C415.5,908,411.6,876.1,407.8,854.5z M-1.8,636.2
		c3.3-7.1,2.3-19.9,4.8-28.8c3.2-11.2-1.3-12.7,0.5-18.8c2-6.7-0.1-12.7-2.7-18.6C-5.7,554.7-3.7,621.1-1.8,636.2z M371.5,538.5
		c3.4-27.4-1.5-23.8-2.1-60.4C368.4,420.5,358.9,515.1,371.5,538.5z M385.7,448.9c1.2-1,2.6-1.6,2.9-2.6c2.5-8.9,1.8-17.9,0-26.8
		c-0.2-0.9-1.7-1.9-2.7-2.1c-7.3-1-5.6,20.7-3.9,27.9C382.3,446.7,384.4,447.7,385.7,448.9z M315.3,1101.1c6.1-1.6,5.7-8.3,4.8-35.9
		c0-0.9-2.6-1.7-4-2.5c-2.3,4.2-2.3,1.4-2,34.8C314.2,1098.7,314.9,1099.9,315.3,1101.1z M82.7,225.1c1.3-0.4,3.1-0.4,3.2-0.9
		c0.7-3.1,2.1-6.6,1.3-9.4c-4.4-15.6,0.8-35.2-5-36.1C80.7,193.9,81.3,215.8,82.7,225.1z M410.7,353c1.6-2.1,1.5,3.9,1.8-43.7
		c0-0.7-0.9-1.5-2.2-3.5C410.1,322.4,407.9,337.6,410.7,353z M200,21.1c0.4-27.9,1.1-28.4-0.7-37.8c-1.2,9.2-1.5,1.1-0.5,35.5
		C198.9,19.2,199.3,19.7,200,21.1z M269,101c-6.1,22.1,9.3,25.6,4.1,5.4C272.7,104.8,271,103.5,269,101z M258.6,239.5
		c1-20.6,2-21.2-4.6-19.7C254.2,226.4,253.2,233.3,258.6,239.5z M401.2,422.6c-4,3.2-4.2,6.8-3.2,11.1c1.7,7.8,1.2,7.8,4.6,7.9
		C405.8,441.7,401.5,426.2,401.2,422.6z M370.9,453.1c1-0.6,2.4-0.9,2.9-1.8c1.9-3.3,2.3-7,1.2-10.7c-0.3-1.2-3.7-2.4-4.1,0
		C370.2,444.7,368.1,448.9,370.9,453.1z M217.4,1096.9c2.1-3.1,1.4-6.4,1.5-9.4c0.1-3.2,1.1-6.7-1.3-10.1
		C215.8,1084.1,217.4,1090.3,217.4,1096.9z M217.4,1133.7c1.8-8.1,1.3-14.2,0.9-20.3C217.1,1115.2,217.4,1112.5,217.4,1133.7z
		 M160.2-25.1c0-34.3-1.6-15.2-1.5-2.7C158.7-27.3,159.2-26.7,160.2-25.1z M10.8,913.5c-1.5,4.7-2.2,9.4-1.1,14.2
		C11.1,926.1,10.8,925.4,10.8,913.5z M340.8,1129.3c-3,1.6-3-0.7-3.5,9c0,0.6,0.4,1.2,0.6,1.8c2.2-1.9,2.5-0.1,4-9.4
		C342,1130.3,341.2,1129.7,340.8,1129.3z M349.2,372.8c-2.9,9.2-2.9,9.2,0.2,16C351.5,382.3,351.3,382.3,349.2,372.8z M432.7,684.7
		c-0.3,7.3-2.7,12.9,0.6,19.3C435,697.4,434.3,691.9,432.7,684.7z M363.3,730.8c0.8-0.7,2.1-1.3,2.2-2.1c1.1-4.9,1.5-9.9-1.2-14.5
		c0,0-0.7,0.4-1.1,0.6C361,725,361.1,725,363.3,730.8z M47.4,66.2c-1.7,2-1.5,4.4-0.9,6.7c0.6,2.1,3.2,2,3.6-0.1
		C51.2,66.6,48.3,65.1,47.4,66.2z M233.3,1072.4c-1,0.2-2.3,0.5-2.8,1.2c-4.1,7,1.7,11.6,3.2,7.8
		C235.4,1076.9,234.1,1072.2,233.3,1072.4z M272.7,38.4c-1.2,1.1-3.3,2-3.4,3.2c-0.4,3.4-0.3,7.1,4,8.3
		C273.7,46.1,275.4,42.5,272.7,38.4z M407.6,576.1c-1.8,2.9-2.3,5.9,0,8.8C409.9,582,409.6,579.1,407.6,576.1z M232.6,1121.6
		c1.7-4.8,1.6-3.8,1.1-5.9c-0.8-3.6-5.4-2-3.9,1.1C230.5,1118.4,231.5,1119.8,232.6,1121.6z M342.8,341.1c-0.4,1.1-1.2,2.2-1,3.1
		c0.4,2.3,4,5.8,3.5-0.9C345.2,342.3,343.2,341.3,342.8,341.1z M392.6,558.6c3.2-3,1.9-6.4,0.6-9.7
		C390.3,551.9,391,555.2,392.6,558.6z M116.3-22.1c-2.7,2.7-2,5-0.5,8.4C116-17,116.2-19.2,116.3-22.1z M60,78.9
		c1.4-0.3,1,0.8,1-6.8C60.1,72,60.3,71,60,78.9z M403.7,737.3C403.6,739.8,403.7,738.5,403.7,737.3
		C403.7,738.5,403.7,739.8,403.7,737.3z M232.4,1102.6c-0.9,0.6-1.9,1.1-2.5,1.9c-1.9,2.6,3,4.4,3.2,1.2
		C233.2,1104.7,232.7,1103.6,232.4,1102.6z M207.1,152.5c-1.8,4-1.7,2.3-0.3,6.5C208.6,155.1,208.5,156.7,207.1,152.5z
		 M295.3,1080.2c0-2.7,0.2-1.9-1-2.9c-1,4.5-1,3.4,0.3,4.4C294.8,1081.1,295.1,1080.6,295.3,1080.2z M257.9,182.9
		c1-4.1,0.9-2.8-0.3-5.1C257.2,179.7,257.1,178.3,257.9,182.9z M10.2,997.8c-0.8,1.9-0.9,1.4,0.1,1.7L10.2,997.8z M35.3,169.3
		c-0.5,1.8-0.5,1.3,0.4,1.9C36.1,169.4,36.1,169.9,35.3,169.3z M46.2,99.9c1-1.9,1.1-1.4-0.2-1.8L46.2,99.9z M47,58.4
		c0.3,0.4,0.5,1.1,0.9,1.3c1.1,0.6,2.1,0.1,2.4-1.2c0.1-0.4-0.6-1.4-0.7-1.3C48.7,57.4,47.8,57.9,47,58.4z M68.6,1092.2
		c-0.3,0.2-0.7,0.3-0.7,0.5c0,1.7,0.4,2.2,1,1.1C69.1,1093.4,68.7,1092.7,68.6,1092.2z M82.8,234.7c-0.5,1.9-0.5,1.4,0.4,2
		C83.8,234.7,83.7,235.3,82.8,234.7z M108.9,1108.3c-0.8-0.1-0.7-0.4-0.4,1.2L108.9,1108.3z M115.6-36.3c0.5-2,0.6-1.4-0.5-2.1
		C114.5-36.4,114.5-36.9,115.6-36.3z M141.7,1120.9c-0.5-2.1-0.3-2.3-0.8,0L141.7,1120.9z M207.5,1190c-0.2-0.4-0.5-0.9-0.7-1.3
		c-0.3,0.4-0.8,0.8-0.9,1.2c-0.2,1.4,0.3,2.1,1.2,1.5C207.3,1191.2,207.3,1190.5,207.5,1190z M239.9,215.6c-1,1.7-0.9,1-0.3,3
		C240.6,216.8,240.5,217.6,239.9,215.6z M243.7,254.6c-0.4,0.2-1,0.4-1,0.6c-0.1,2,0.4,2.4,1.3,1.2
		C244.2,256,243.8,255.2,243.7,254.6z M258.4,1120.9c-0.2-2-0.6-2.1-1.2-0.2c-0.1,0.4,0.3,1,0.4,1.5
		C257.9,1121.7,258.1,1121.3,258.4,1120.9z M258,1108.3c-1.2-0.1-1-0.5-0.6,1.3L258,1108.3z M268.6,28.1c0,1.7,0.5,2.1,1.3,1.1
		c0.2-0.2-0.2-1-0.3-1.5C269.3,27.8,269,28,268.6,28.1z M327.4,1044c1.4,1.2,0.8,1.1,2.5,0.3C328.5,1043.1,329.1,1043.2,327.4,1044z
		 M331.4,1033.9c-0.4-2.2-0.9-2.3-1.5-0.1c-0.1,0.4,0.4,1.1,0.6,1.6C330.8,1034.9,331.1,1034.4,331.4,1033.9z M374.3,355.2
		c0.4-0.2,1.5-0.1,1.1-2.1c-0.1-0.4-0.5-0.7-0.8-1.1C374.5,353.1,374.4,354.2,374.3,355.2z M388.9,321.7c0.5,2.2,0.3,2.2,0.7,0
		L388.9,321.7z M418.1,530.3c1.1,0.1,0.9,0.5,0.5-1.6L418.1,530.3z"/>
	<path class="st0" d="M435.2,1003.3c-1.2-1.4-3-2.5-3.5-4.2c-5.6-17.2,0.1-20.8-2.4-38.5c-3.3-22.8-1.6-91.9-2-93.6
		c-2.3-9.7-1.9-15.5,0.5-50.4c0.1-1.7,0.9-3.3,1.7-6.5c3.8,20.2,2.3,39.1,3,60.5c2.9-20.1-1-40.6,4.1-46.3c7.1,0.1,6,4.8,6.5,33.5
		c3.1-1.2,2.1-3.9,2.6-5.8c4.9-19.9,5.7-24,5.7-3.3c3.2,8.9,4.7,8.4,5.2,26.8c0.2,9.6,0.1,160.3,3.3,177.3c0.9,4.6-1.1,8.9-4.1,12.4
		c-4.1-2.2-3.2-7.6-6.5-10.8c-2.6-0.7-5.5-1.4-8.5-2.1c-5.9,8-0.2,22.9-13.5,24.5c-4.2,0.5-8.4,1-12.3,2.9c-1.7,0.8-5.2-1.4-6-3.5
		c-0.8-2.4-2.1-5-1.9-7.4c0.3-5.8,0.4-11.9,2.1-17.3c5.4-16.9,3.6-23.6,8-21.7c1.5,0.7,1.3,0.7,3.6,8.7c3.5,1.2,2.6-3,4.2-4
		c0.5-0.3,1.2-0.1,2.2-0.1c0,23-0.6,24.5,1.3,28.7c2.2,0.5,4.3,0.4,4.5-1.9c1-19.4,4-38.8,1.8-58.3c0.8-0.9,2.2-1.7,2.3-2.6
		c1.2-9.4,1.4-18.9,1-28.4c-0.1-1.5-1-2.9-1.8-5.1C433.7,978.1,433.7,979.2,435.2,1003.3z M444.1,1044c1.2-4.3,2.8-7.5-0.2-10.5
		C442.1,1036.8,442.1,1039.7,444.1,1044z"/>
	<path class="st0" d="M442.6,126.6c-5.9,22.6-1.6,2.5-8.7,59.1c-14.5,6.6-10.9-40.5-9.1-57.3c4.5-41.4,1-42.2,6.5-51.8
		c1.3-2.3,3.5-2.1,4.7,1.3c2.5,7.2,0.2,23.1,6.2-33.2c0.8-7.2-2.1-3.3-1.2-30.9c0.8-24.3-4.2-33.2,0.8-53.4
		c-0.8-3.5-1.7-7.9-2.8-12.7c-0.1-7.9,2.7-16.2,0.7-24.6c-1.2-4.9,9.2-29.8,4-61.5c-0.2-1,0.8-2.6,1.7-3.1c9.1-5.9,1,27.9,5.1,58.3
		c1.5,11.3-1.8-20-0.3,101.4c0.4,35,8.1,123.9,8.1,124c1.8,1,3.4,1.9,4.9,2.7c3.2,9.2,4.3,18.7,4.8,28.5c0.9,17.6,7.1,54.5,3.9,75.4
		c-3.5,2-4.3-0.7-4.9-3.1c-0.8-3.1-2.7-2.4-3.6-0.8c-0.6,1.1-3.4,36.5-3.2,50.5c0,1-0.8,2.1-1.2,3.2c-1.8-3.6-1.3-56-2.5-71.9
		c-0.6-8.1-6.3-2.3-7.4-14.4c-0.7-7.3-0.6-17.5-0.6-22.8c-4.3-5.2-5.8-10.5-5.4-16.7c0.5-8.4-0.1-16.9,1.5-25.3
		c1.1-5.7,1.1-11.7-0.2-17.5c-0.2-1.1-1.3-2-2-3c-0.8-1.3,0-3.4-1.9-4.1C439.8,124.9,439.1,124,442.6,126.6z M462.3,168.6
		c-2.3,2-1.3,4.1-0.3,6.2C463.9,172.8,463.6,170.7,462.3,168.6z"/>
	<path class="st0" d="M277.7-70.1c-2.2,1.6-4.4,1.7-6.7,0.3c-3.7-2.2-4.2-5.6-4.2-23.8c-0.2-92.5-0.2-85.5,1.9-89
		c4.6-1.7,14,1.5,15.6,9.4c2.3,11.1-0.8,46.7,0.1,56c1.1,10.9,0.5,22,0.7,33c1.6-1.8-1.9,2-3.7,4C282.3-82.1,281.1-79.2,277.7-70.1z
		"/>
	<path class="st0" d="M444.7,430.7c-15.2,4.9-7.8,8-11.7-59.3c-2.4-4.1-6.9-1.1-8.6-4.7c2.8-1.1,5.5-2.1,8.7-3.3
		c3.3-13.8,2.3-28.7,10.1-41c3.5,0.4,2.1-2,5.8,9.4c2.7,1.3,3-0.8,5.5-7.7c1.2,0.3,1.7-2,1.8,13.9c0.3,29.7-6.9,23.4-6.4,45.4
		C450.3,398.9,447.9,414.1,444.7,430.7z"/>
	<path class="st0" d="M483.5,826.3c-3.4-10.4-1.1-4.1-1.4-15.3c-0.1-3.1-3.8-1.3-4-0.8c-4.5,15-3.5,18.2-8.3,23.3
		c-12-7.4-5.4-18.1-13.1-38.5c13.9,0,0.2-0.3,12.2-26.2c0.4-0.8,2.1-1.5,3.1-1.4c2.9,0.3,3.1,4.1,4.9,11.5c0.8-3.7,1.6-7.4,2.3-10.9
		c3.8-2,6.9,0.1,10.4,1.6c0.5,1.5,1.8,3.3,1.7,5c-0.3,8.4-0.3,16.9-1.8,25.1c-2.8,15.1,2.2,10.3-1.8,22.3
		C487.2,823.8,485.2,824.7,483.5,826.3z M484.5,796c-0.2-2.1-0.7-2.2-1.3-0.2c-0.1,0.4,0.3,1.1,0.5,1.6
		C484,796.9,484.2,796.5,484.5,796z"/>
	<path class="st0" d="M258.1-69.9c-1.1,0-2.3,0-3.4,0c-1.7-2.9-2.3-10.8-2.2-13.2c1.3-31-1.8-62,0.5-93.1c1.6,0.5,3.2,0.5,3.5,1.2
		c1.2,2.9,2.6,6,2.8,9.1C260.3-146.4,265.9-81,258.1-69.9z"/>
	<path class="st0" d="M378,1187.9c-4.5-4.4-2.8,3.1-6.5-30.2c-6.6-9.6-10.9-11.7,2.6-33.1c7,4.6,3.2,3.2,8.3-1
		c3.4-2.9,4.8,0.8,5.6,1.9c-1.3,6.1-3.5,12.4-3.6,18.8c-0.2,6.7-2.4,12.7-3.2,19.1C379.9,1171.9,384.6,1180.3,378,1187.9z"/>
	<path class="st0" d="M398.2,1.1c2.2,1.4,3.6,3.5,3.5,6.2c-0.1,5.1,0.2,10.5-0.8,15.4c-4,18.5,1.8,26-2.4,27.6
		c-2.7,1-0.8-3.2-4.4-29.3c-10.4-7.8-11.9-6.1-9.2-25.9c2.5-1.3,5.2-2.6,7.5-3.7C403.4-6,396.7,5.6,398.2,1.1z"/>
	<path class="st0" d="M400.3,1154.1c1.6,2.8,2.3,5.8,4.1,7c5.6,3.8,6.3,8.8,4.3,15.9c-3.4,2.2-7.4,4.7-11.2,7.2
		c-4.9-0.6-5.8-4.2-6.4-9.2C397.6,1162.5,395.3,1167.4,400.3,1154.1z"/>
	<path class="st0" d="M399.9,86.8c5.2,15.2,5.2,15.2,4.8,32.8c-1,0.2-2.1,0.8-2.9,0.5c-2.9-1.4-2.6-3.8-3.4-11.5
		c-3.8-2.3-3.7-5.9-3.4-10C395.4,93.9,396.1,89.7,399.9,86.8z"/>
	<path class="st0" d="M-36.9,762c-0.6,18.9,3.6,37.4,0.3,58.1C-39.4,808.7-39.5,795.6-36.9,762z"/>
	<path class="st0" d="M334.6-121.7c-2.7-4.7-5-15.7-1.8-22.1c1.5-3.1,4.7-1.9,5.3,0.1C340.1-136.2,338.9-125.7,334.6-121.7z"/>
	<path class="st0" d="M370.7,22.3c-1.2-19.5-0.8-21.5,4.7-25.3C376.8,6.5,376.8,6.5,370.7,22.3z"/>
	<path class="st0" d="M391.8,1149.8c-0.5-26.3-0.9-22.8,1.5-25.7c1.1-1.3,3-0.1,2.9,0.5C394.6,1133.3,396.1,1142.2,391.8,1149.8z"/>
	<path class="st0" d="M357.9,106.7l0.4,0.4c-1.8-10.8,0.3-21.5,0.3-32.2c0-1,1.1-2,1.7-2.9c1.6,2.2,1.8,4.2,1.7,5.2
		c-1.4,10.1,2.5,20.3-0.2,30.4C362.3,106.9,363,107.1,357.9,106.7z"/>
	<path class="st0" d="M418.5,141.1c-1.3-0.6-2.9-0.9-3.1-1.6c-1.3-4.1-2-8.4-0.4-12.7C420.1,123.8,421,135.1,418.5,141.1z"/>
	<path class="st0" d="M-38,668.9c0-23.8-0.3-20.2,0.9-21.7c1.3,2.1,1.1-2.4,0.6,22.1C-36.9,669.2-37.5,669-38,668.9z"/>
	<path class="st0" d="M462.7,366.7c-5,3.4-3.5-1.8-1-17.1c0.1-0.4,0.7-0.7,1.3-1.3C464.6,354.8,463.2,360.9,462.7,366.7z"/>
	<path class="st0" d="M386.1,1220c-6.3-11.2,8.3-25.6,3.5-4C389.3,1217.4,387.5,1218.5,386.1,1220z"/>
	<path class="st0" d="M370.2,34.9c1.4,4,3.5,4.8,1.6,25.6c-1.2-0.9-2.4-1.4-2.4-1.9C369,51.7,368.8,44.8,370.2,34.9z"/>
	<path class="st0" d="M462.3,115.2c1.2,6.5,1.5,12.7-0.2,20.6C460.4,127.9,460.5,121.7,462.3,115.2z"/>
	<path class="st0" d="M433.2,759c0.9,0.6,5.4,1.3,3.9,10.6c-0.4,2.4-3.7,0.3-3.9-0.2C431.7,766,431.8,765.9,433.2,759z"/>
	<path class="st0" d="M325.6,188.9c-5.8-1.1-10.2-3.7-10.2-11c3.3-1.6,4.7,2.8,7.6,2.4C325.6,184,324.5,190.1,325.6,188.9z"/>
	<path class="st0" d="M418.4,165.7c-3-5.3-2.3-16.4-0.4-15.9c0.9,0.3,2.2,0.7,2.4,1.4c1.5,4.2,1.7,8.5,0.3,12.8
		C420.4,164.8,419.2,165.1,418.4,165.7z"/>
	<path class="st0" d="M-37.7,873.5c1.8,5.5,1.7,10.3,0.4,15.9C-38.8,883.9-38.5,879.1-37.7,873.5z"/>
	<path class="st0" d="M451.2,824.4c-2.6-6.6-2.3-11.5,0.4-16.3C452.7,813.1,454.8,818.1,451.2,824.4z"/>
	<path class="st0" d="M-19.3,557.2c-2-4.1-2-7.8,0-11.8C-17.7,549.4-17.7,553.1-19.3,557.2z"/>
	<path class="st0" d="M239.8,29.9c-3.5-4.8-3.9-9.3-0.1-14.1C243.1,20.6,243.4,25.1,239.8,29.9z"/>
	<path class="st0" d="M420,866c3.4,3.1,4.5,4.7,3.6,15.9c-0.2,2-1.7,3.2-3.5,3.7l0.3,0.3C418.2,877.2,422,864.6,420,866z"/>
	<path class="st0" d="M311.9,40.1c4.1,5.4,4.4,5.4,3.9,7.3c-0.2,0.9-1.4,2-2.2,2.1C310.4,50,311.6,43.8,311.9,40.1z"/>
	<path class="st0" d="M378.7,1200.8c2.8,9.8-3.4,11.2-3.5,9.1C375,1206.3,374.8,1202.7,378.7,1200.8z"/>
	<path class="st0" d="M-27.5,1055.8c1.7-1.5,3-2.6,4.3-3.7c2.3,2.6,2.2,4.9,0,7.5C-24.4,1058.4-25.8,1057.2-27.5,1055.8z"/>
	<path class="st0" d="M371.6,213.5c-0.9,4-6.1,1-4.5-2.3C368.1,209,372,209.7,371.6,213.5z"/>
	<path class="st0" d="M399.6,64.4c2.2,9.2,2.2,6.8-0.1,9.1C398.4,71.7,398.3,74,399.6,64.4z"/>
	<path class="st0" d="M425.4,375.4c0.2,0.5,0.7,1,0.6,1.4c-0.3,1.2-1.1,1.2-2-0.1c-0.2-0.3,0-0.9,0-1.3
		C424.4,375.4,424.9,375.4,425.4,375.4z"/>
	<path class="st0" d="M2.8,27.4c1.8,2.3,1.5,4.5,0,6.8C1.1,32,1.2,29.7,2.8,27.4z"/>
	<path class="st0" d="M287.2,1185.8C287.2,1183.4,287.2,1184.6,287.2,1185.8C287.3,1184.6,287.3,1183.4,287.2,1185.8z"/>
	<path class="st0" d="M312.6-2.3c1.1,1,1.1-0.1,0.3,3.9C311.8,0.7,311.8,1.7,312.6-2.3z"/>
	<path class="st0" d="M-22.4,474.5c1.6,4.3-2.5,3.1-1.1,0.3C-23.3,474.6-22.8,474.6-22.4,474.5z"/>
	<path class="st0" d="M-19.5,359c-0.3-2-0.5-1.7,0.6-1.4L-19.5,359z"/>
	<path class="st0" d="M6.2,10c-1-0.6-1,0-0.5-1.9C6.7,8.7,6.7,8.1,6.2,10z"/>
	<path class="st0" d="M227.5-28.2c0.4-1.1,0.8-2.2,1.1-3.3c0.4,0.5,0.8,0.9,1.1,1.4c0.6,1.4,0.2,2.5-1.1,3.1
		C228.5-26.9,227.9-27.8,227.5-28.2z"/>
	<path class="st0" d="M322.7,161.1c0.3-0.1,0.7-0.3,1-0.4c0.1,0.6,0.5,1.4,0.3,1.6C323.2,163.4,322.7,162.9,322.7,161.1z"/>
	<path class="st0" d="M324,142.1c-0.2,0.4-0.5,0.8-0.7,1.3c-0.2-0.5-0.6-1-0.5-1.4C323.3,140.2,323.7,140.2,324,142.1z"/>
	<path class="st0" d="M357.9,106.7c0.1,0.9,0.6,4.7-0.3,4.9c-1.2,0.3-1.9-0.6-1.3-2C357.2,107.5,358.9,107.6,357.9,106.7z"/>
	<path class="st0" d="M392.6-78.7c-0.5-1.8-0.6-1.1,0.4-2.6C393.4-79.6,393.5-80.2,392.6-78.7z"/>
	<path class="st0" d="M421.7,1168.2c-1.2-4.6,2.2-3.3,0.9-0.4C422.6,1168,422.1,1168.1,421.7,1168.2z"/>
	<path class="st0" d="M425.8,411.4c0.1,0.5,0.5,1.3,0.3,1.6c-0.8,1.1-1.3,0.7-1.2-1.1C424.9,411.7,425.5,411.6,425.8,411.4z"/>
	<path class="st0" d="M172.5,1225.8c-1.8-1.3-1.2-2.6,0-3.9l-0.4-0.3C172.1,1227.1,171.9,1226.3,172.5,1225.8z"/>
	<path class="st0" d="M325.3,189.3c1,1,0.9,1.2,0.3-0.4L325.3,189.3z"/>
	<path class="st0" d="M335.1,257.9c-1.2,0.5-1,0.8-0.9-0.7L335.1,257.9z"/>
	<path class="st0" d="M415,104.5c0.4,1.6,0.6,1.3-0.7,1.1L415,104.5z"/>
	<path class="st0" d="M473.7,257.9c-1.3,0.5-1.1,0.7-0.9-0.7L473.7,257.9z"/>
	<path class="st0" d="M383.7,956.1c1.4-1.1,1.5-0.9-0.4-0.4L383.7,956.1z"/>
</g>
</svg>
